<?xml version="1.0" standalone="no"?>
<!DOCTYPE svg PUBLIC "-//W3C//DTD SVG 20010904//EN"
 "http://www.w3.org/TR/2001/REC-SVG-20010904/DTD/svg10.dtd">
<svg version="1.0" xmlns="http://www.w3.org/2000/svg"
 width="260.000000pt" height="260.000000pt" viewBox="0 0 260.000000 260.000000"
 preserveAspectRatio="xMidYMid meet">
<metadata>
Created by potrace 1.11, written by Peter Selinger 2001-2013
</metadata>
<g transform="translate(0.000000,260.000000) scale(0.100000,-0.100000)"
fill="#000000" stroke="none">
<path d="M0 1300 l0 -1300 1300 0 1300 0 0 1300 0 1300 -1300 0 -1300 0 0
-1300z m805 1080 c24 -5 49 -20 63 -37 13 -16 72 -138 131 -272 60 -134 116
-248 125 -253 43 -24 61 -4 187 214 163 284 183 314 218 333 25 12 75 15 291
15 l262 0 29 -29 29 -30 -2 -1015 -3 -1016 -28 -27 -27 -28 -180 0 c-159 0
-181 2 -197 18 -17 17 -18 70 -21 939 -2 655 -6 925 -13 935 -17 20 -43 16
-66 -9 -11 -13 -103 -165 -204 -338 -101 -173 -194 -325 -206 -337 -30 -31
-83 -31 -114 1 -13 13 -91 172 -174 353 -82 180 -158 336 -167 345 -22 22 -38
23 -64 4 -18 -14 -19 -38 -24 -923 -5 -893 -5 -909 -26 -943 -36 -62 -104 -65
-148 -7 -21 28 -21 30 -24 1038 -2 716 1 1016 9 1030 19 36 66 48 189 48 63 0
133 -4 155 -9z m520 -1504 c61 -26 65 -45 65 -325 l0 -251 -29 -32 -29 -33
-162 -3 c-183 -4 -201 1 -220 65 -7 25 -10 123 -8 280 l3 241 25 27 c14 15 34
31 45 35 35 15 272 12 310 -4z"/>
</g>
</svg>
